# xmcd
#
# Track frame offsets: 
#        150
#        20937
#        42257
#        58647
#        76177
#        100440
#        113910
#        131037
#        153645
#        170687
#
# Disc length: 2511 seconds
#
# Revision: 0
# Processed by: cddbd v1.5.2PL0 Copyright (c) Steve Scherf et al.
# Submitted via: ExactAudioCopy v1.0b3
#
DISCID=8909cd0a
DTITLE=Corey Stevens - Blue Drops Of Rain
DYEAR=1995
DGENRE=Blues
TTITLE0=Gone Too Long
TTITLE1=Blue Drops of Rain
TTITLE2=Crosscut Saw
TTITLE3=I Got a Rich Man's Woman
TTITLE4=It's Over
TTITLE5=Back in Time
TTITLE6=I'll Play the Blues
TTITLE7=The Brothers
TTITLE8=Headshrinker
TTITLE9=Goin' Crazy
EXTD=
EXTT0=
EXTT1=
EXTT2=
EXTT3=
EXTT4=
EXTT5=
EXTT6=
EXTT7=
EXTT8=
EXTT9=
PLAYORDER=
